<svg version="1" xmlns="http://www.w3.org/2000/svg" width="682.667" height="682.667" viewBox="0 0 512.000000 512.000000"><path d="M229.5 23.2C140.1 33.3 62.6 95.9 34 181.1c-28.5 85-7.2 177.3 55.5 240.3 18.9 19 38.8 33.3 63 45.1 23 11.3 44.7 18.1 70.7 22.1 15.7 2.5 49.9 2.5 65.6 0 52-8.1 97.4-30.8 133.2-66.6 58.7-58.7 81.7-143.4 61-224.4-4.1-16-8.7-28.3-17-45.1C430.9 80.6 361.2 32 280.5 23c-10.8-1.2-39.8-1.1-51 .2zM273 72.6c7.1 3.4 13.8 9.6 17.7 16.1 4.3 7.3 5.3 13.4 5.3 32V138h9.7c8.6 0 9.9.3 12 2.2 3.2 3 3.1 8.1-.2 11.3-2.2 2.3-3.2 2.5-12 2.5H296v16h9.7c8.6 0 9.9.3 12 2.2 2.9 2.7 3 7.7.4 10.9-1.7 2.2-2.8 2.4-12 2.7l-10.1.4V202h9.5c8.8 0 9.8.2 12 2.5 1.6 1.5 2.5 3.6 2.5 5.5s-.9 4-2.5 5.5c-2.2 2.3-3.2 2.5-12 2.5H296v75.8l3.7 2.3c16.5 10.2 29.2 28.3 34.4 48.8 1.8 7.1 2 10.4 1.6 20.5-.6 14.4-2.2 21.1-8.2 33.1-7.8 15.9-19 27.4-34.4 35.4-13.5 7-20.5 8.6-37.1 8.6s-23.6-1.6-37.1-8.6c-15.7-8.2-26.7-19.6-34.9-36.4-10-20.4-10.8-43.8-2.3-64.5 5.7-13.9 17.3-28.3 28.8-35.8l5-3.3.5-97.7.5-97.7 3.3-6.7c7.5-15.3 20.2-22.9 37.2-22.5 8.3.2 10.3.6 16 3.3z"/><path d="M246.5 86.9c-4.6 2.1-9.8 6.9-12.3 11.5-1.6 2.9-1.7 11-2.2 103.1-.3 55-.8 100.5-1.3 101.2-.4.6-4.5 3.6-9.1 6.7-14.5 9.7-23.5 22.1-27.6 38.2-8.7 33.8 12.4 68.7 46.6 77.4 40 10.3 79.3-20.7 79.4-62.6 0-14.3-6.3-30.7-16.1-41.7-2.8-3.1-8.8-8.2-13.5-11.3-4.6-3.1-8.7-6.1-9.1-6.7-.5-.7-1-46.2-1.3-101.2-.6-111 0-102.3-7.2-109.5-4.6-4.6-10.3-7-16.8-7-3.2 0-7.2.8-9.5 1.9zm15.1 29.2c1.8 2 1.9 5.5 2.4 100.6l.5 98.5 6 1.9c12.8 3.9 25.7 16.3 30.7 29.4 3.2 8.4 3.2 25.4-.1 33.4-13.4 32.8-54.2 41.5-78.9 16.9-9.5-9.5-14.2-21-14.2-34.7.1-19.9 13.6-38.3 32.9-44.8l6.6-2.2.3-98.2.2-98.3 2.2-2.3c2.9-3 8.7-3.2 11.4-.2z"/><path d="M246.4 332.4c-5.9 1.9-12.9 7-16.2 11.9-11.3 16.4-6.5 37.1 10.8 46.6 6 3.3 7.1 3.6 15 3.6 7.2-.1 9.3-.5 13.6-2.7 7.5-3.9 10.7-7 14.5-14 3.1-5.8 3.4-7 3.4-14.8 0-7-.5-9.4-2.5-13.5-3.1-6.4-9.2-12.4-15.4-15.5-6-2.8-17.1-3.6-23.2-1.6z"/></svg>